<?xml version="1.0" encoding="UTF-8"?>
<svg width="30px" height="24px" viewBox="0 0 30 24" version="1.1" xmlns="http://www.w3.org/2000/svg" xmlns:xlink="http://www.w3.org/1999/xlink">
    <!-- Generator: sketchtool 52.6 (67491) - http://www.bohemiancoding.com/sketch -->
    <title>C1C178E8-8262-4BF1-A647-8009243A10C2</title>
    <desc>Created with sketchtool.</desc>
    <g id="Page-1" stroke="none" stroke-width="1" fill="none" fill-rule="evenodd">
        <g id="Template-5" transform="translate(-1198.000000, -340.000000)" fill="#FFFFFF">
            <path d="M1228,342.841231 C1226.88438,343.323077 1225.69563,343.642462 1224.45625,343.797538 C1225.73125,343.048 1226.70438,341.870154 1227.16188,340.450462 C1225.97312,341.148308 1224.66062,341.641231 1223.26187,341.916308 C1222.13313,340.732923 1220.52437,340 1218.76938,340 C1215.36438,340 1212.62313,342.721231 1212.62313,346.057231 C1212.62313,346.537231 1212.66438,346.998769 1212.76562,347.438154 C1207.6525,347.192615 1203.12812,344.779692 1200.08875,341.104 C1199.55813,342.010462 1199.24688,343.048 1199.24688,344.164923 C1199.24688,346.262154 1200.34375,348.121231 1201.97875,349.197538 C1200.99062,349.179077 1200.02125,348.896615 1199.2,348.451692 L1199.2,348.518154 C1199.2,351.460923 1201.33188,353.905231 1204.1275,354.468308 C1203.62687,354.603077 1203.08125,354.667692 1202.515,354.667692 C1202.12125,354.667692 1201.72375,354.645538 1201.35063,354.564308 C1202.1475,356.962462 1204.40875,358.725538 1207.0975,358.782769 C1205.005,360.394462 1202.34812,361.365538 1199.47187,361.365538 C1198.9675,361.365538 1198.48375,361.343385 1198,361.282462 C1200.72438,363.012308 1203.95312,364 1207.435,364 C1218.7525,364 1224.94,354.769231 1224.94,346.768 C1224.94,346.500308 1224.93062,346.241846 1224.9175,345.985231 C1226.13812,345.132308 1227.16375,344.067077 1228,342.841231" id="Fill-1-Copy-2"></path>
        </g>
    </g>
</svg>